<?xml version="1.0" encoding="UTF-8" standalone="no"?>
<!DOCTYPE svg PUBLIC "-//W3C//DTD SVG 1.1//EN"
 "http://www.w3.org/Graphics/SVG/1.1/DTD/svg11.dtd">
<!-- Generated by graphviz version 2.46.0 (20210119.1425)
 -->
<!-- Title: dependencies Pages: 1 -->
<svg width="518pt" height="284pt"
 viewBox="0.00 0.00 518.00 284.00" xmlns="http://www.w3.org/2000/svg" xmlns:xlink="http://www.w3.org/1999/xlink">
<g id="graph0" class="graph" transform="scale(1 1) rotate(0) translate(4 280)">
<title>dependencies</title>
<polygon fill="white" stroke="transparent" points="-4,4 -4,-280 514,-280 514,4 -4,4"/>
<text text-anchor="start" x="234.01" y="-42.4" font-family="sans-serif" font-weight="bold" font-size="14.00">Legend</text>
<polygon fill="#ffffb3" stroke="transparent" points="21,-10 21,-30 41,-30 41,-10 21,-10"/>
<text text-anchor="start" x="44.63" y="-15.4" font-family="sans-serif" font-size="14.00"> &#160;Declarations</text>
<polygon fill="#8dd3c7" stroke="transparent" points="134,-10 134,-30 154,-30 154,-10 134,-10"/>
<text text-anchor="start" x="157.73" y="-15.4" font-family="sans-serif" font-size="14.00"> &#160;Module</text>
<polygon fill="#80b1d3" stroke="transparent" points="220,-10 220,-30 240,-30 240,-10 220,-10"/>
<text text-anchor="start" x="243.78" y="-15.4" font-family="sans-serif" font-size="14.00"> &#160;Bootstrap</text>
<polygon fill="#fdb462" stroke="transparent" points="317,-10 317,-30 337,-30 337,-10 317,-10"/>
<text text-anchor="start" x="340.67" y="-15.4" font-family="sans-serif" font-size="14.00"> &#160;Providers</text>
<polygon fill="#fb8072" stroke="transparent" points="413,-10 413,-30 433,-30 433,-10 413,-10"/>
<text text-anchor="start" x="436.73" y="-15.4" font-family="sans-serif" font-size="14.00"> &#160;Exports</text>
<g id="clust1" class="cluster">
<title>cluster_AuthorizationTokenModule</title>
<polygon fill="none" stroke="black" stroke-dasharray="1,5" points="8,-70 8,-268 502,-268 502,-70 8,-70"/>
</g>
<g id="clust3" class="cluster">
<title>cluster_AuthorizationTokenModule_imports</title>
<polygon fill="none" stroke="black" points="276,-78 276,-130 494,-130 494,-78 276,-78"/>
</g>
<g id="clust6" class="cluster">
<title>cluster_AuthorizationTokenModule_providers</title>
<polygon fill="none" stroke="black" points="16,-78 16,-130 268,-130 268,-78 16,-78"/>
</g>
<g id="clust4" class="cluster">
<title>cluster_AuthorizationTokenModule_exports</title>
<polygon fill="none" stroke="black" points="231,-208 231,-260 423,-260 423,-208 231,-208"/>
</g>
<!-- PrismaModule -->
<g id="node1" class="node">
<title>PrismaModule</title>
<polygon fill="#8dd3c7" stroke="black" points="486.43,-122 483.43,-126 462.43,-126 459.43,-122 387.57,-122 387.57,-86 486.43,-86 486.43,-122"/>
<text text-anchor="middle" x="437" y="-99.8" font-family="Times,serif" font-size="14.00">PrismaModule</text>
</g>
<!-- AuthorizationTokenModule -->
<g id="node3" class="node">
<title>AuthorizationTokenModule</title>
<polygon fill="#8dd3c7" stroke="black" points="413.58,-187 410.58,-191 389.58,-191 386.58,-187 240.42,-187 240.42,-151 413.58,-151 413.58,-187"/>
<text text-anchor="middle" x="327" y="-164.8" font-family="Times,serif" font-size="14.00">AuthorizationTokenModule</text>
</g>
<!-- PrismaModule&#45;&gt;AuthorizationTokenModule -->
<g id="edge1" class="edge">
<title>PrismaModule&#45;&gt;AuthorizationTokenModule</title>
<path fill="none" stroke="black" d="M400.66,-122.11C400.66,-122.11 400.66,-140.99 400.66,-140.99"/>
<polygon fill="black" stroke="black" points="397.16,-140.99 400.66,-150.99 404.16,-140.99 397.16,-140.99"/>
</g>
<!-- UserModule -->
<g id="node2" class="node">
<title>UserModule</title>
<polygon fill="#8dd3c7" stroke="black" points="369.98,-122 366.98,-126 345.98,-126 342.98,-122 284.02,-122 284.02,-86 369.98,-86 369.98,-122"/>
<text text-anchor="middle" x="327" y="-99.8" font-family="Times,serif" font-size="14.00">UserModule</text>
</g>
<!-- UserModule&#45;&gt;AuthorizationTokenModule -->
<g id="edge2" class="edge">
<title>UserModule&#45;&gt;AuthorizationTokenModule</title>
<path fill="none" stroke="black" d="M327,-122.11C327,-122.11 327,-140.99 327,-140.99"/>
<polygon fill="black" stroke="black" points="323.5,-140.99 327,-150.99 330.5,-140.99 323.5,-140.99"/>
</g>
<!-- AuthorizationTokenService  -->
<g id="node4" class="node">
<title>AuthorizationTokenService </title>
<polygon fill="#fb8072" stroke="black" points="414.5,-252 239.5,-252 239.5,-216 414.5,-216 414.5,-252"/>
<text text-anchor="middle" x="327" y="-229.8" font-family="Times,serif" font-size="14.00">AuthorizationTokenService </text>
</g>
<!-- AuthorizationTokenModule&#45;&gt;AuthorizationTokenService  -->
<g id="edge3" class="edge">
<title>AuthorizationTokenModule&#45;&gt;AuthorizationTokenService </title>
<path fill="none" stroke="black" stroke-dasharray="5,2" d="M327,-187.11C327,-187.11 327,-205.99 327,-205.99"/>
<polygon fill="black" stroke="black" points="323.5,-205.99 327,-215.99 330.5,-205.99 323.5,-205.99"/>
</g>
<!-- AuthorizationTokenService -->
<g id="node5" class="node">
<title>AuthorizationTokenService</title>
<ellipse fill="#fdb462" stroke="black" cx="142" cy="-104" rx="118.1" ry="18"/>
<text text-anchor="middle" x="142" y="-99.8" font-family="Times,serif" font-size="14.00">AuthorizationTokenService</text>
</g>
<!-- AuthorizationTokenService&#45;&gt;AuthorizationTokenModule -->
<g id="edge4" class="edge">
<title>AuthorizationTokenService&#45;&gt;AuthorizationTokenModule</title>
<path fill="none" stroke="black" d="M250.38,-111.46C250.38,-111.46 250.38,-140.84 250.38,-140.84"/>
<polygon fill="black" stroke="black" points="246.88,-140.84 250.38,-150.84 253.88,-140.84 246.88,-140.84"/>
</g>
</g>
</svg>
