<?xml version="1.0" encoding="UTF-8" standalone="no"?>
<!DOCTYPE svg PUBLIC "-//W3C//DTD SVG 1.1//EN"
 "http://www.w3.org/Graphics/SVG/1.1/DTD/svg11.dtd">
<!-- Generated by graphviz version 2.46.0 (20210119.1425)
 -->
<!-- Title: dependencies Pages: 1 -->
<svg width="518pt" height="284pt"
 viewBox="0.00 0.00 518.00 284.00" xmlns="http://www.w3.org/2000/svg" xmlns:xlink="http://www.w3.org/1999/xlink">
<g id="graph0" class="graph" transform="scale(1 1) rotate(0) translate(4 280)">
<title>dependencies</title>
<polygon fill="white" stroke="transparent" points="-4,4 -4,-280 514,-280 514,4 -4,4"/>
<text text-anchor="start" x="234.01" y="-42.4" font-family="sans-serif" font-weight="bold" font-size="14.00">Legend</text>
<polygon fill="#ffffb3" stroke="transparent" points="21,-10 21,-30 41,-30 41,-10 21,-10"/>
<text text-anchor="start" x="44.63" y="-15.4" font-family="sans-serif" font-size="14.00"> &#160;Declarations</text>
<polygon fill="#8dd3c7" stroke="transparent" points="134,-10 134,-30 154,-30 154,-10 134,-10"/>
<text text-anchor="start" x="157.73" y="-15.4" font-family="sans-serif" font-size="14.00"> &#160;Module</text>
<polygon fill="#80b1d3" stroke="transparent" points="220,-10 220,-30 240,-30 240,-10 220,-10"/>
<text text-anchor="start" x="243.78" y="-15.4" font-family="sans-serif" font-size="14.00"> &#160;Bootstrap</text>
<polygon fill="#fdb462" stroke="transparent" points="317,-10 317,-30 337,-30 337,-10 317,-10"/>
<text text-anchor="start" x="340.67" y="-15.4" font-family="sans-serif" font-size="14.00"> &#160;Providers</text>
<polygon fill="#fb8072" stroke="transparent" points="413,-10 413,-30 433,-30 433,-10 413,-10"/>
<text text-anchor="start" x="436.73" y="-15.4" font-family="sans-serif" font-size="14.00"> &#160;Exports</text>
<g id="clust1" class="cluster">
<title>cluster_AuthorizationTokenModule</title>
<polygon fill="none" stroke="black" stroke-dasharray="1,5" points="8,-70 8,-268 502,-268 502,-70 8,-70"/>
</g>
<g id="clust6" class="cluster">
<title>cluster_AuthorizationTokenModule_providers</title>
<polygon fill="none" stroke="black" points="242,-78 242,-130 494,-130 494,-78 242,-78"/>
</g>
<g id="clust4" class="cluster">
<title>cluster_AuthorizationTokenModule_exports</title>
<polygon fill="none" stroke="black" points="81,-208 81,-260 273,-260 273,-208 81,-208"/>
</g>
<g id="clust3" class="cluster">
<title>cluster_AuthorizationTokenModule_imports</title>
<polygon fill="none" stroke="black" points="16,-78 16,-130 234,-130 234,-78 16,-78"/>
</g>
<!-- PrismaModule -->
<g id="node1" class="node">
<title>PrismaModule</title>
<polygon fill="#8dd3c7" stroke="black" points="226.43,-122 223.43,-126 202.43,-126 199.43,-122 127.57,-122 127.57,-86 226.43,-86 226.43,-122"/>
<text text-anchor="middle" x="177" y="-99.8" font-family="Times,serif" font-size="14.00">PrismaModule</text>
</g>
<!-- AuthorizationTokenModule -->
<g id="node3" class="node">
<title>AuthorizationTokenModule</title>
<polygon fill="#8dd3c7" stroke="black" points="263.58,-187 260.58,-191 239.58,-191 236.58,-187 90.42,-187 90.42,-151 263.58,-151 263.58,-187"/>
<text text-anchor="middle" x="177" y="-164.8" font-family="Times,serif" font-size="14.00">AuthorizationTokenModule</text>
</g>
<!-- PrismaModule&#45;&gt;AuthorizationTokenModule -->
<g id="edge1" class="edge">
<title>PrismaModule&#45;&gt;AuthorizationTokenModule</title>
<path fill="none" stroke="black" d="M177,-122.11C177,-122.11 177,-140.99 177,-140.99"/>
<polygon fill="black" stroke="black" points="173.5,-140.99 177,-150.99 180.5,-140.99 173.5,-140.99"/>
</g>
<!-- UserModule -->
<g id="node2" class="node">
<title>UserModule</title>
<polygon fill="#8dd3c7" stroke="black" points="109.98,-122 106.98,-126 85.98,-126 82.98,-122 24.02,-122 24.02,-86 109.98,-86 109.98,-122"/>
<text text-anchor="middle" x="67" y="-99.8" font-family="Times,serif" font-size="14.00">UserModule</text>
</g>
<!-- UserModule&#45;&gt;AuthorizationTokenModule -->
<g id="edge2" class="edge">
<title>UserModule&#45;&gt;AuthorizationTokenModule</title>
<path fill="none" stroke="black" d="M100.23,-122.11C100.23,-122.11 100.23,-140.99 100.23,-140.99"/>
<polygon fill="black" stroke="black" points="96.73,-140.99 100.23,-150.99 103.73,-140.99 96.73,-140.99"/>
</g>
<!-- AuthorizationTokenService  -->
<g id="node4" class="node">
<title>AuthorizationTokenService </title>
<polygon fill="#fb8072" stroke="black" points="264.5,-252 89.5,-252 89.5,-216 264.5,-216 264.5,-252"/>
<text text-anchor="middle" x="177" y="-229.8" font-family="Times,serif" font-size="14.00">AuthorizationTokenService </text>
</g>
<!-- AuthorizationTokenModule&#45;&gt;AuthorizationTokenService  -->
<g id="edge3" class="edge">
<title>AuthorizationTokenModule&#45;&gt;AuthorizationTokenService </title>
<path fill="none" stroke="black" stroke-dasharray="5,2" d="M177,-187.11C177,-187.11 177,-205.99 177,-205.99"/>
<polygon fill="black" stroke="black" points="173.5,-205.99 177,-215.99 180.5,-205.99 173.5,-205.99"/>
</g>
<!-- AuthorizationTokenService -->
<g id="node5" class="node">
<title>AuthorizationTokenService</title>
<ellipse fill="#fdb462" stroke="black" cx="368" cy="-104" rx="118.1" ry="18"/>
<text text-anchor="middle" x="368" y="-99.8" font-family="Times,serif" font-size="14.00">AuthorizationTokenService</text>
</g>
<!-- AuthorizationTokenService&#45;&gt;AuthorizationTokenModule -->
<g id="edge4" class="edge">
<title>AuthorizationTokenService&#45;&gt;AuthorizationTokenModule</title>
<path fill="none" stroke="black" d="M256.62,-110.47C256.62,-110.47 256.62,-140.78 256.62,-140.78"/>
<polygon fill="black" stroke="black" points="253.12,-140.78 256.62,-150.78 260.12,-140.78 253.12,-140.78"/>
</g>
</g>
</svg>
