<?xml version="1.0" encoding="UTF-8" standalone="no"?>
<!DOCTYPE svg PUBLIC "-//W3C//DTD SVG 1.1//EN"
 "http://www.w3.org/Graphics/SVG/1.1/DTD/svg11.dtd">
<!-- Generated by graphviz version 2.46.0 (20210119.1425)
 -->
<!-- Title: dependencies Pages: 1 -->
<svg width="560pt" height="284pt"
 viewBox="0.00 0.00 560.00 284.00" xmlns="http://www.w3.org/2000/svg" xmlns:xlink="http://www.w3.org/1999/xlink">
<g id="graph0" class="graph" transform="scale(1 1) rotate(0) translate(4 280)">
<title>dependencies</title>
<polygon fill="white" stroke="transparent" points="-4,4 -4,-280 556,-280 556,4 -4,4"/>
<text text-anchor="start" x="255.01" y="-42.4" font-family="sans-serif" font-weight="bold" font-size="14.00">Legend</text>
<polygon fill="#ffffb3" stroke="transparent" points="42,-10 42,-30 62,-30 62,-10 42,-10"/>
<text text-anchor="start" x="65.63" y="-15.4" font-family="sans-serif" font-size="14.00"> &#160;Declarations</text>
<polygon fill="#8dd3c7" stroke="transparent" points="155,-10 155,-30 175,-30 175,-10 155,-10"/>
<text text-anchor="start" x="178.73" y="-15.4" font-family="sans-serif" font-size="14.00"> &#160;Module</text>
<polygon fill="#80b1d3" stroke="transparent" points="241,-10 241,-30 261,-30 261,-10 241,-10"/>
<text text-anchor="start" x="264.78" y="-15.4" font-family="sans-serif" font-size="14.00"> &#160;Bootstrap</text>
<polygon fill="#fdb462" stroke="transparent" points="338,-10 338,-30 358,-30 358,-10 338,-10"/>
<text text-anchor="start" x="361.67" y="-15.4" font-family="sans-serif" font-size="14.00"> &#160;Providers</text>
<polygon fill="#fb8072" stroke="transparent" points="434,-10 434,-30 454,-30 454,-10 434,-10"/>
<text text-anchor="start" x="457.73" y="-15.4" font-family="sans-serif" font-size="14.00"> &#160;Exports</text>
<g id="clust1" class="cluster">
<title>cluster_UserModule</title>
<polygon fill="none" stroke="black" stroke-dasharray="1,5" points="8,-70 8,-268 544,-268 544,-70 8,-70"/>
</g>
<g id="clust3" class="cluster">
<title>cluster_UserModule_imports</title>
<polygon fill="none" stroke="black" points="156,-78 156,-130 536,-130 536,-78 156,-78"/>
</g>
<g id="clust4" class="cluster">
<title>cluster_UserModule_exports</title>
<polygon fill="none" stroke="black" points="240,-208 240,-260 344,-260 344,-208 240,-208"/>
</g>
<g id="clust6" class="cluster">
<title>cluster_UserModule_providers</title>
<polygon fill="none" stroke="black" points="16,-78 16,-130 148,-130 148,-78 16,-78"/>
</g>
<!-- PrismaModule -->
<g id="node1" class="node">
<title>PrismaModule</title>
<polygon fill="#8dd3c7" stroke="black" points="528.43,-122 525.43,-126 504.43,-126 501.43,-122 429.57,-122 429.57,-86 528.43,-86 528.43,-122"/>
<text text-anchor="middle" x="479" y="-99.8" font-family="Times,serif" font-size="14.00">PrismaModule</text>
</g>
<!-- UserModule -->
<g id="node4" class="node">
<title>UserModule</title>
<polygon fill="#8dd3c7" stroke="black" points="334.98,-187 331.98,-191 310.98,-191 307.98,-187 249.02,-187 249.02,-151 334.98,-151 334.98,-187"/>
<text text-anchor="middle" x="292" y="-164.8" font-family="Times,serif" font-size="14.00">UserModule</text>
</g>
<!-- PrismaModule&#45;&gt;UserModule -->
<g id="edge1" class="edge">
<title>PrismaModule&#45;&gt;UserModule</title>
<path fill="none" stroke="black" d="M479,-122.11C479,-141.34 479,-169 479,-169 479,-169 345.37,-169 345.37,-169"/>
<polygon fill="black" stroke="black" points="345.37,-165.5 335.37,-169 345.37,-172.5 345.37,-165.5"/>
</g>
<!-- SecurityModule -->
<g id="node2" class="node">
<title>SecurityModule</title>
<polygon fill="#8dd3c7" stroke="black" points="412.2,-122 409.2,-126 388.2,-126 385.2,-122 305.8,-122 305.8,-86 412.2,-86 412.2,-122"/>
<text text-anchor="middle" x="359" y="-99.8" font-family="Times,serif" font-size="14.00">SecurityModule</text>
</g>
<!-- SecurityModule&#45;&gt;UserModule -->
<g id="edge2" class="edge">
<title>SecurityModule&#45;&gt;UserModule</title>
<path fill="none" stroke="black" d="M320.44,-122.11C320.44,-122.11 320.44,-140.99 320.44,-140.99"/>
<polygon fill="black" stroke="black" points="316.94,-140.99 320.44,-150.99 323.94,-140.99 316.94,-140.99"/>
</g>
<!-- UserProfileModule -->
<g id="node3" class="node">
<title>UserProfileModule</title>
<polygon fill="#8dd3c7" stroke="black" points="288.08,-122 285.08,-126 264.08,-126 261.08,-122 163.92,-122 163.92,-86 288.08,-86 288.08,-122"/>
<text text-anchor="middle" x="226" y="-99.8" font-family="Times,serif" font-size="14.00">UserProfileModule</text>
</g>
<!-- UserProfileModule&#45;&gt;UserModule -->
<g id="edge3" class="edge">
<title>UserProfileModule&#45;&gt;UserModule</title>
<path fill="none" stroke="black" d="M268.52,-122.11C268.52,-122.11 268.52,-140.99 268.52,-140.99"/>
<polygon fill="black" stroke="black" points="265.02,-140.99 268.52,-150.99 272.02,-140.99 265.02,-140.99"/>
</g>
<!-- UserService  -->
<g id="node5" class="node">
<title>UserService </title>
<polygon fill="#fb8072" stroke="black" points="335.9,-252 248.1,-252 248.1,-216 335.9,-216 335.9,-252"/>
<text text-anchor="middle" x="292" y="-229.8" font-family="Times,serif" font-size="14.00">UserService </text>
</g>
<!-- UserModule&#45;&gt;UserService  -->
<g id="edge4" class="edge">
<title>UserModule&#45;&gt;UserService </title>
<path fill="none" stroke="black" stroke-dasharray="5,2" d="M292,-187.11C292,-187.11 292,-205.99 292,-205.99"/>
<polygon fill="black" stroke="black" points="288.5,-205.99 292,-215.99 295.5,-205.99 288.5,-205.99"/>
</g>
<!-- UserService -->
<g id="node6" class="node">
<title>UserService</title>
<ellipse fill="#fdb462" stroke="black" cx="82" cy="-104" rx="58.44" ry="18"/>
<text text-anchor="middle" x="82" y="-99.8" font-family="Times,serif" font-size="14.00">UserService</text>
</g>
<!-- UserService&#45;&gt;UserModule -->
<g id="edge5" class="edge">
<title>UserService&#45;&gt;UserModule</title>
<path fill="none" stroke="black" d="M82,-122.11C82,-141.34 82,-169 82,-169 82,-169 239,-169 239,-169"/>
<polygon fill="black" stroke="black" points="239,-172.5 249,-169 239,-165.5 239,-172.5"/>
</g>
</g>
</svg>
