<?xml version="1.0" encoding="UTF-8" standalone="no"?>
<!DOCTYPE svg PUBLIC "-//W3C//DTD SVG 1.1//EN"
 "http://www.w3.org/Graphics/SVG/1.1/DTD/svg11.dtd">
<!-- Generated by graphviz version 2.46.0 (20210119.1425)
 -->
<!-- Title: dependencies Pages: 1 -->
<svg width="2513pt" height="439pt"
 viewBox="0.00 0.00 2513.00 439.00" xmlns="http://www.w3.org/2000/svg" xmlns:xlink="http://www.w3.org/1999/xlink">
<g id="graph0" class="graph" transform="scale(1 1) rotate(0) translate(4 435)">
<title>dependencies</title>
<polygon fill="white" stroke="transparent" points="-4,4 -4,-435 2509,-435 2509,4 -4,4"/>
<text text-anchor="start" x="1231.51" y="-42.4" font-family="sans-serif" font-weight="bold" font-size="14.00">Legend</text>
<polygon fill="#ffffb3" stroke="transparent" points="1018.5,-10 1018.5,-30 1038.5,-30 1038.5,-10 1018.5,-10"/>
<text text-anchor="start" x="1042.13" y="-15.4" font-family="sans-serif" font-size="14.00"> &#160;Declarations</text>
<polygon fill="#8dd3c7" stroke="transparent" points="1131.5,-10 1131.5,-30 1151.5,-30 1151.5,-10 1131.5,-10"/>
<text text-anchor="start" x="1155.23" y="-15.4" font-family="sans-serif" font-size="14.00"> &#160;Module</text>
<polygon fill="#80b1d3" stroke="transparent" points="1217.5,-10 1217.5,-30 1237.5,-30 1237.5,-10 1217.5,-10"/>
<text text-anchor="start" x="1241.28" y="-15.4" font-family="sans-serif" font-size="14.00"> &#160;Bootstrap</text>
<polygon fill="#fdb462" stroke="transparent" points="1314.5,-10 1314.5,-30 1334.5,-30 1334.5,-10 1314.5,-10"/>
<text text-anchor="start" x="1338.17" y="-15.4" font-family="sans-serif" font-size="14.00"> &#160;Providers</text>
<polygon fill="#fb8072" stroke="transparent" points="1410.5,-10 1410.5,-30 1430.5,-30 1430.5,-10 1410.5,-10"/>
<text text-anchor="start" x="1434.23" y="-15.4" font-family="sans-serif" font-size="14.00"> &#160;Exports</text>
<g id="clust1" class="cluster">
<title>cluster_AppModule</title>
<polygon fill="none" stroke="black" stroke-dasharray="1,5" points="382,-70 382,-415 717,-415 717,-70 382,-70"/>
</g>
<g id="clust3" class="cluster">
<title>cluster_AppModule_imports</title>
<polygon fill="none" stroke="black" points="422,-78 422,-347 709,-347 709,-78 422,-78"/>
</g>
<g id="clust7" class="cluster">
<title>cluster_AuthorizationTokenModule</title>
<polygon fill="none" stroke="black" stroke-dasharray="1,5" points="725,-355 725,-423 1193,-423 1193,-355 725,-355"/>
</g>
<g id="clust10" class="cluster">
<title>cluster_AuthorizationTokenModule_exports</title>
<polygon fill="none" stroke="black" points="993,-363 993,-415 1185,-415 1185,-363 993,-363"/>
</g>
<g id="clust12" class="cluster">
<title>cluster_AuthorizationTokenModule_providers</title>
<polygon fill="none" stroke="black" points="733,-363 733,-415 985,-415 985,-363 733,-363"/>
</g>
<g id="clust25" class="cluster">
<title>cluster_SecurityModule</title>
<polygon fill="none" stroke="black" stroke-dasharray="1,5" points="8,-222 8,-290 374,-290 374,-222 8,-222"/>
</g>
<g id="clust28" class="cluster">
<title>cluster_SecurityModule_exports</title>
<polygon fill="none" stroke="black" points="218,-230 218,-282 366,-282 366,-230 218,-230"/>
</g>
<g id="clust30" class="cluster">
<title>cluster_SecurityModule_providers</title>
<polygon fill="none" stroke="black" points="16,-230 16,-282 210,-282 210,-230 16,-230"/>
</g>
<g id="clust31" class="cluster">
<title>cluster_TencentCloudModule</title>
<polygon fill="none" stroke="black" stroke-dasharray="1,5" points="725,-146 725,-214 1994,-214 1994,-146 725,-146"/>
</g>
<g id="clust34" class="cluster">
<title>cluster_TencentCloudModule_exports</title>
<polygon fill="none" stroke="black" points="1449,-154 1449,-206 1986,-206 1986,-154 1449,-154"/>
</g>
<g id="clust36" class="cluster">
<title>cluster_TencentCloudModule_providers</title>
<polygon fill="none" stroke="black" points="733,-154 733,-206 1441,-206 1441,-154 733,-154"/>
</g>
<g id="clust37" class="cluster">
<title>cluster_UserModule</title>
<polygon fill="none" stroke="black" stroke-dasharray="1,5" points="2002,-146 2002,-214 2410,-214 2410,-146 2002,-146"/>
</g>
<g id="clust39" class="cluster">
<title>cluster_UserModule_imports</title>
<polygon fill="none" stroke="black" points="2262,-154 2262,-206 2402,-206 2402,-154 2262,-154"/>
</g>
<g id="clust40" class="cluster">
<title>cluster_UserModule_exports</title>
<polygon fill="none" stroke="black" points="2150,-154 2150,-206 2254,-206 2254,-154 2150,-154"/>
</g>
<g id="clust42" class="cluster">
<title>cluster_UserModule_providers</title>
<polygon fill="none" stroke="black" points="2010,-154 2010,-206 2142,-206 2142,-154 2010,-154"/>
</g>
<g id="clust43" class="cluster">
<title>cluster_UserProfileModule</title>
<polygon fill="none" stroke="black" stroke-dasharray="1,5" points="2145,-70 2145,-138 2497,-138 2497,-70 2145,-70"/>
</g>
<g id="clust46" class="cluster">
<title>cluster_UserProfileModule_exports</title>
<polygon fill="none" stroke="black" points="2347,-78 2347,-130 2489,-130 2489,-78 2347,-78"/>
</g>
<g id="clust48" class="cluster">
<title>cluster_UserProfileModule_providers</title>
<polygon fill="none" stroke="black" points="2153,-78 2153,-130 2339,-130 2339,-78 2153,-78"/>
</g>
<!-- AuthorizationTokenModule -->
<g id="node1" class="node">
<title>AuthorizationTokenModule</title>
<polygon fill="#8dd3c7" stroke="black" points="700.58,-339 697.58,-343 676.58,-343 673.58,-339 527.42,-339 527.42,-303 700.58,-303 700.58,-339"/>
<text text-anchor="middle" x="614" y="-316.8" font-family="Times,serif" font-size="14.00">AuthorizationTokenModule</text>
</g>
<!-- AppModule -->
<g id="node7" class="node">
<title>AppModule</title>
<polygon fill="#8dd3c7" stroke="black" points="519.66,-407 516.66,-411 495.66,-411 492.66,-407 436.34,-407 436.34,-371 519.66,-371 519.66,-407"/>
<text text-anchor="middle" x="478" y="-384.8" font-family="Times,serif" font-size="14.00">AppModule</text>
</g>
<!-- AuthorizationTokenModule&#45;&gt;AppModule -->
<g id="edge1" class="edge">
<title>AuthorizationTokenModule&#45;&gt;AppModule</title>
<path fill="none" stroke="black" d="M527.34,-321C515.81,-321 507.88,-321 507.88,-321 507.88,-321 507.88,-360.78 507.88,-360.78"/>
<polygon fill="black" stroke="black" points="504.38,-360.78 507.88,-370.78 511.38,-360.78 504.38,-360.78"/>
</g>
<!-- AuthorizationTokenService  -->
<g id="node8" class="node">
<title>AuthorizationTokenService </title>
<polygon fill="#fb8072" stroke="black" points="1176.5,-407 1001.5,-407 1001.5,-371 1176.5,-371 1176.5,-407"/>
<text text-anchor="middle" x="1089" y="-384.8" font-family="Times,serif" font-size="14.00">AuthorizationTokenService </text>
</g>
<!-- AuthorizationTokenModule&#45;&gt;AuthorizationTokenService  -->
<g id="edge9" class="edge">
<title>AuthorizationTokenModule&#45;&gt;AuthorizationTokenService </title>
<path fill="none" stroke="black" stroke-dasharray="5,2" d="M700.57,-321C837.58,-321 1089,-321 1089,-321 1089,-321 1089,-360.78 1089,-360.78"/>
<polygon fill="black" stroke="black" points="1085.5,-360.78 1089,-370.78 1092.5,-360.78 1085.5,-360.78"/>
</g>
<!-- MomentModule -->
<g id="node2" class="node">
<title>MomentModule</title>
<polygon fill="#8dd3c7" stroke="black" points="536.49,-198 533.49,-202 512.49,-202 509.49,-198 429.51,-198 429.51,-162 536.49,-162 536.49,-198"/>
<text text-anchor="middle" x="483" y="-175.8" font-family="Times,serif" font-size="14.00">MomentModule</text>
</g>
<!-- MomentModule&#45;&gt;AppModule -->
<g id="edge2" class="edge">
<title>MomentModule&#45;&gt;AppModule</title>
<path fill="none" stroke="black" d="M448.12,-198.18C448.12,-198.18 448.12,-360.71 448.12,-360.71"/>
<polygon fill="black" stroke="black" points="444.62,-360.71 448.12,-370.71 451.62,-360.71 444.62,-360.71"/>
</g>
<!-- PrismaModule -->
<g id="node3" class="node">
<title>PrismaModule</title>
<polygon fill="#8dd3c7" stroke="black" points="544.43,-122 541.43,-126 520.43,-126 517.43,-122 445.57,-122 445.57,-86 544.43,-86 544.43,-122"/>
<text text-anchor="middle" x="495" y="-99.8" font-family="Times,serif" font-size="14.00">PrismaModule</text>
</g>
<!-- PrismaModule&#45;&gt;AuthorizationTokenModule -->
<g id="edge7" class="edge">
<title>PrismaModule&#45;&gt;AuthorizationTokenModule</title>
<path fill="none" stroke="black" d="M540.36,-122.13C540.36,-122.13 540.36,-292.77 540.36,-292.77"/>
<polygon fill="black" stroke="black" points="536.86,-292.77 540.36,-302.77 543.86,-292.77 536.86,-292.77"/>
</g>
<!-- PrismaModule&#45;&gt;MomentModule -->
<g id="edge11" class="edge">
<title>PrismaModule&#45;&gt;MomentModule</title>
<path fill="none" stroke="black" d="M476.02,-122.01C476.02,-122.01 476.02,-151.85 476.02,-151.85"/>
<polygon fill="black" stroke="black" points="472.52,-151.85 476.02,-161.85 479.52,-151.85 472.52,-151.85"/>
</g>
<!-- SecurityModule -->
<g id="node4" class="node">
<title>SecurityModule</title>
<polygon fill="#8dd3c7" stroke="black" points="661.2,-198 658.2,-202 637.2,-202 634.2,-198 554.8,-198 554.8,-162 661.2,-162 661.2,-198"/>
<text text-anchor="middle" x="608" y="-175.8" font-family="Times,serif" font-size="14.00">SecurityModule</text>
</g>
<!-- PrismaModule&#45;&gt;SecurityModule -->
<g id="edge12" class="edge">
<title>PrismaModule&#45;&gt;SecurityModule</title>
<path fill="none" stroke="black" d="M544.27,-104C552.66,-104 558.73,-104 558.73,-104 558.73,-104 558.73,-151.99 558.73,-151.99"/>
<polygon fill="black" stroke="black" points="555.23,-151.99 558.73,-161.99 562.23,-151.99 555.23,-151.99"/>
</g>
<!-- UserModule -->
<g id="node6" class="node">
<title>UserModule</title>
<polygon fill="#8dd3c7" stroke="black" points="700.98,-274 697.98,-278 676.98,-278 673.98,-274 615.02,-274 615.02,-238 700.98,-238 700.98,-274"/>
<text text-anchor="middle" x="658" y="-251.8" font-family="Times,serif" font-size="14.00">UserModule</text>
</g>
<!-- PrismaModule&#45;&gt;UserModule -->
<g id="edge22" class="edge">
<title>PrismaModule&#45;&gt;UserModule</title>
<path fill="none" stroke="black" d="M542.29,-122.11C542.29,-160.59 542.29,-247 542.29,-247 542.29,-247 604.91,-247 604.91,-247"/>
<polygon fill="black" stroke="black" points="604.91,-250.5 614.91,-247 604.91,-243.5 604.91,-250.5"/>
</g>
<!-- PrismaModule&#45;&gt;AppModule -->
<g id="edge3" class="edge">
<title>PrismaModule&#45;&gt;AppModule</title>
<path fill="none" stroke="black" d="M538.43,-122.08C538.43,-168.63 538.43,-289 538.43,-289 538.43,-289 495.93,-289 495.93,-289 495.93,-289 495.93,-360.66 495.93,-360.66"/>
<polygon fill="black" stroke="black" points="492.43,-360.66 495.93,-370.66 499.43,-360.66 492.43,-360.66"/>
</g>
<!-- UserProfileModule -->
<g id="node18" class="node">
<title>UserProfileModule</title>
<polygon fill="#8dd3c7" stroke="black" points="2394.08,-198 2391.08,-202 2370.08,-202 2367.08,-198 2269.92,-198 2269.92,-162 2394.08,-162 2394.08,-198"/>
<text text-anchor="middle" x="2332" y="-175.8" font-family="Times,serif" font-size="14.00">UserProfileModule</text>
</g>
<!-- PrismaModule&#45;&gt;UserProfileModule -->
<g id="edge27" class="edge">
<title>PrismaModule&#45;&gt;UserProfileModule</title>
<path fill="none" stroke="black" d="M506.26,-122.11C506.26,-131.9 506.26,-142 506.26,-142 506.26,-142 2290.14,-142 2290.14,-142 2290.14,-142 2290.14,-151.89 2290.14,-151.89"/>
<polygon fill="black" stroke="black" points="2286.64,-151.89 2290.14,-161.89 2293.64,-151.89 2286.64,-151.89"/>
</g>
<!-- SecurityModule&#45;&gt;UserModule -->
<g id="edge23" class="edge">
<title>SecurityModule&#45;&gt;UserModule</title>
<path fill="none" stroke="black" d="M638.06,-198.01C638.06,-198.01 638.06,-227.85 638.06,-227.85"/>
<polygon fill="black" stroke="black" points="634.56,-227.85 638.06,-237.85 641.56,-227.85 634.56,-227.85"/>
</g>
<!-- SecurityModule&#45;&gt;AppModule -->
<g id="edge4" class="edge">
<title>SecurityModule&#45;&gt;AppModule</title>
<path fill="none" stroke="black" d="M584.96,-198.11C584.96,-207.9 584.96,-218 584.96,-218 584.96,-218 460.07,-218 460.07,-218 460.07,-218 460.07,-360.7 460.07,-360.7"/>
<polygon fill="black" stroke="black" points="456.57,-360.7 460.07,-370.7 463.57,-360.7 456.57,-360.7"/>
</g>
<!-- SecuritySmsService  -->
<g id="node10" class="node">
<title>SecuritySmsService </title>
<polygon fill="#fb8072" stroke="black" points="358.25,-274 225.75,-274 225.75,-238 358.25,-238 358.25,-274"/>
<text text-anchor="middle" x="292" y="-251.8" font-family="Times,serif" font-size="14.00">SecuritySmsService </text>
</g>
<!-- SecurityModule&#45;&gt;SecuritySmsService  -->
<g id="edge14" class="edge">
<title>SecurityModule&#45;&gt;SecuritySmsService </title>
<path fill="none" stroke="black" stroke-dasharray="5,2" d="M599.98,-198.01C599.98,-220.49 599.98,-256 599.98,-256 599.98,-256 368.45,-256 368.45,-256"/>
<polygon fill="black" stroke="black" points="368.45,-252.5 358.45,-256 368.45,-259.5 368.45,-252.5"/>
</g>
<!-- TencentCloudModule -->
<g id="node5" class="node">
<title>TencentCloudModule</title>
<polygon fill="#8dd3c7" stroke="black" points="701.36,-122 698.36,-126 677.36,-126 674.36,-122 562.64,-122 562.64,-86 701.36,-86 701.36,-122"/>
<text text-anchor="middle" x="632" y="-99.8" font-family="Times,serif" font-size="14.00">TencentCloudModule</text>
</g>
<!-- TencentCloudModule&#45;&gt;SecurityModule -->
<g id="edge13" class="edge">
<title>TencentCloudModule&#45;&gt;SecurityModule</title>
<path fill="none" stroke="black" d="M611.83,-122.01C611.83,-122.01 611.83,-151.85 611.83,-151.85"/>
<polygon fill="black" stroke="black" points="608.33,-151.85 611.83,-161.85 615.33,-151.85 608.33,-151.85"/>
</g>
<!-- TencentCloudModule&#45;&gt;AppModule -->
<g id="edge5" class="edge">
<title>TencentCloudModule&#45;&gt;AppModule</title>
<path fill="none" stroke="black" d="M674.4,-122.03C674.4,-156.42 674.4,-228 674.4,-228 674.4,-228 472.02,-228 472.02,-228 472.02,-228 472.02,-360.84 472.02,-360.84"/>
<polygon fill="black" stroke="black" points="468.52,-360.84 472.02,-370.84 475.52,-360.84 468.52,-360.84"/>
</g>
<!-- TencentCloudCosService  -->
<g id="node12" class="node">
<title>TencentCloudCosService </title>
<polygon fill="#fb8072" stroke="black" points="1978.07,-198 1815.93,-198 1815.93,-162 1978.07,-162 1978.07,-198"/>
<text text-anchor="middle" x="1897" y="-175.8" font-family="Times,serif" font-size="14.00">TencentCloudCosService </text>
</g>
<!-- TencentCloudModule&#45;&gt;TencentCloudCosService  -->
<g id="edge16" class="edge">
<title>TencentCloudModule&#45;&gt;TencentCloudCosService </title>
<path fill="none" stroke="black" stroke-dasharray="5,2" d="M701.81,-92C967.01,-92 1897,-92 1897,-92 1897,-92 1897,-151.77 1897,-151.77"/>
<polygon fill="black" stroke="black" points="1893.5,-151.77 1897,-161.77 1900.5,-151.77 1893.5,-151.77"/>
</g>
<!-- TencentCloudSmsService  -->
<g id="node13" class="node">
<title>TencentCloudSmsService </title>
<polygon fill="#fb8072" stroke="black" points="1797.41,-198 1632.59,-198 1632.59,-162 1797.41,-162 1797.41,-198"/>
<text text-anchor="middle" x="1715" y="-175.8" font-family="Times,serif" font-size="14.00">TencentCloudSmsService </text>
</g>
<!-- TencentCloudModule&#45;&gt;TencentCloudSmsService  -->
<g id="edge17" class="edge">
<title>TencentCloudModule&#45;&gt;TencentCloudSmsService </title>
<path fill="none" stroke="black" stroke-dasharray="5,2" d="M701.39,-98C940.42,-98 1715,-98 1715,-98 1715,-98 1715,-151.8 1715,-151.8"/>
<polygon fill="black" stroke="black" points="1711.5,-151.8 1715,-161.8 1718.5,-151.8 1711.5,-151.8"/>
</g>
<!-- TencentCloudStsService  -->
<g id="node14" class="node">
<title>TencentCloudStsService </title>
<polygon fill="#fb8072" stroke="black" points="1614.91,-198 1457.09,-198 1457.09,-162 1614.91,-162 1614.91,-198"/>
<text text-anchor="middle" x="1536" y="-175.8" font-family="Times,serif" font-size="14.00">TencentCloudStsService </text>
</g>
<!-- TencentCloudModule&#45;&gt;TencentCloudStsService  -->
<g id="edge18" class="edge">
<title>TencentCloudModule&#45;&gt;TencentCloudStsService </title>
<path fill="none" stroke="black" stroke-dasharray="5,2" d="M701.43,-104C913.12,-104 1536,-104 1536,-104 1536,-104 1536,-151.99 1536,-151.99"/>
<polygon fill="black" stroke="black" points="1532.5,-151.99 1536,-161.99 1539.5,-151.99 1532.5,-151.99"/>
</g>
<!-- UserModule&#45;&gt;AuthorizationTokenModule -->
<g id="edge8" class="edge">
<title>UserModule&#45;&gt;AuthorizationTokenModule</title>
<path fill="none" stroke="black" d="M657.77,-274.11C657.77,-274.11 657.77,-292.99 657.77,-292.99"/>
<polygon fill="black" stroke="black" points="654.27,-292.99 657.77,-302.99 661.27,-292.99 654.27,-292.99"/>
</g>
<!-- UserModule&#45;&gt;AppModule -->
<g id="edge6" class="edge">
<title>UserModule&#45;&gt;AppModule</title>
<path fill="none" stroke="black" d="M614.98,-265C563.45,-265 483.98,-265 483.98,-265 483.98,-265 483.98,-360.97 483.98,-360.97"/>
<polygon fill="black" stroke="black" points="480.48,-360.97 483.98,-370.97 487.48,-360.97 480.48,-360.97"/>
</g>
<!-- UserService  -->
<g id="node19" class="node">
<title>UserService </title>
<polygon fill="#fb8072" stroke="black" points="2245.9,-198 2158.1,-198 2158.1,-162 2245.9,-162 2245.9,-198"/>
<text text-anchor="middle" x="2202" y="-175.8" font-family="Times,serif" font-size="14.00">UserService </text>
</g>
<!-- UserModule&#45;&gt;UserService  -->
<g id="edge25" class="edge">
<title>UserModule&#45;&gt;UserService </title>
<path fill="none" stroke="black" stroke-dasharray="5,2" d="M701.31,-256C951.63,-256 2202,-256 2202,-256 2202,-256 2202,-208.01 2202,-208.01"/>
<polygon fill="black" stroke="black" points="2205.5,-208.01 2202,-198.01 2198.5,-208.01 2205.5,-208.01"/>
</g>
<!-- AuthorizationTokenService -->
<g id="node9" class="node">
<title>AuthorizationTokenService</title>
<ellipse fill="#fdb462" stroke="black" cx="859" cy="-389" rx="118.1" ry="18"/>
<text text-anchor="middle" x="859" y="-384.8" font-family="Times,serif" font-size="14.00">AuthorizationTokenService</text>
</g>
<!-- AuthorizationTokenService&#45;&gt;AuthorizationTokenModule -->
<g id="edge10" class="edge">
<title>AuthorizationTokenService&#45;&gt;AuthorizationTokenModule</title>
<path fill="none" stroke="black" d="M740.45,-389C677.91,-389 614,-389 614,-389 614,-389 614,-349.22 614,-349.22"/>
<polygon fill="black" stroke="black" points="617.5,-349.22 614,-339.22 610.5,-349.22 617.5,-349.22"/>
</g>
<!-- SecuritySmsService -->
<g id="node11" class="node">
<title>SecuritySmsService</title>
<ellipse fill="#fdb462" stroke="black" cx="113" cy="-256" rx="88.62" ry="18"/>
<text text-anchor="middle" x="113" y="-251.8" font-family="Times,serif" font-size="14.00">SecuritySmsService</text>
</g>
<!-- SecuritySmsService&#45;&gt;SecurityModule -->
<g id="edge15" class="edge">
<title>SecuritySmsService&#45;&gt;SecurityModule</title>
<path fill="none" stroke="black" d="M113,-237.85C113,-224.26 113,-208 113,-208 113,-208 569.93,-208 569.93,-208 569.93,-208 569.93,-207.02 569.93,-207.02"/>
<polygon fill="black" stroke="black" points="573.43,-208.21 569.93,-198.21 566.43,-208.21 573.43,-208.21"/>
</g>
<!-- TencentCloudCosService -->
<g id="node15" class="node">
<title>TencentCloudCosService</title>
<ellipse fill="#fdb462" stroke="black" cx="1323" cy="-180" rx="109.95" ry="18"/>
<text text-anchor="middle" x="1323" y="-175.8" font-family="Times,serif" font-size="14.00">TencentCloudCosService</text>
</g>
<!-- TencentCloudCosService&#45;&gt;TencentCloudModule -->
<g id="edge19" class="edge">
<title>TencentCloudCosService&#45;&gt;TencentCloudModule</title>
<path fill="none" stroke="black" d="M1323,-161.97C1323,-141.23 1323,-110 1323,-110 1323,-110 711.42,-110 711.42,-110"/>
<polygon fill="black" stroke="black" points="711.42,-106.5 701.42,-110 711.42,-113.5 711.42,-106.5"/>
</g>
<!-- TencentCloudSmsService -->
<g id="node16" class="node">
<title>TencentCloudSmsService</title>
<ellipse fill="#fdb462" stroke="black" cx="1084" cy="-180" rx="111.18" ry="18"/>
<text text-anchor="middle" x="1084" y="-175.8" font-family="Times,serif" font-size="14.00">TencentCloudSmsService</text>
</g>
<!-- TencentCloudSmsService&#45;&gt;TencentCloudModule -->
<g id="edge20" class="edge">
<title>TencentCloudSmsService&#45;&gt;TencentCloudModule</title>
<path fill="none" stroke="black" d="M1084,-161.83C1084,-142.91 1084,-116 1084,-116 1084,-116 711.63,-116 711.63,-116"/>
<polygon fill="black" stroke="black" points="711.63,-112.5 701.63,-116 711.63,-119.5 711.63,-112.5"/>
</g>
<!-- TencentCloudStsService -->
<g id="node17" class="node">
<title>TencentCloudStsService</title>
<ellipse fill="#fdb462" stroke="black" cx="848" cy="-180" rx="106.52" ry="18"/>
<text text-anchor="middle" x="848" y="-175.8" font-family="Times,serif" font-size="14.00">TencentCloudStsService</text>
</g>
<!-- TencentCloudStsService&#45;&gt;TencentCloudModule -->
<g id="edge21" class="edge">
<title>TencentCloudStsService&#45;&gt;TencentCloudModule</title>
<path fill="none" stroke="black" d="M741.07,-180C711.67,-180 687.69,-180 687.69,-180 687.69,-180 687.69,-132.01 687.69,-132.01"/>
<polygon fill="black" stroke="black" points="691.19,-132.01 687.69,-122.01 684.19,-132.01 691.19,-132.01"/>
</g>
<!-- UserProfileModule&#45;&gt;UserModule -->
<g id="edge24" class="edge">
<title>UserProfileModule&#45;&gt;UserModule</title>
<path fill="none" stroke="black" d="M2332,-198.03C2332,-222.98 2332,-265 2332,-265 2332,-265 711.06,-265 711.06,-265"/>
<polygon fill="black" stroke="black" points="711.06,-261.5 701.06,-265 711.06,-268.5 711.06,-261.5"/>
</g>
<!-- UserProfileService  -->
<g id="node21" class="node">
<title>UserProfileService </title>
<polygon fill="#fb8072" stroke="black" points="2481,-122 2355,-122 2355,-86 2481,-86 2481,-122"/>
<text text-anchor="middle" x="2418" y="-99.8" font-family="Times,serif" font-size="14.00">UserProfileService </text>
</g>
<!-- UserProfileModule&#45;&gt;UserProfileService  -->
<g id="edge28" class="edge">
<title>UserProfileModule&#45;&gt;UserProfileService </title>
<path fill="none" stroke="black" stroke-dasharray="5,2" d="M2374.52,-161.99C2374.52,-161.99 2374.52,-132.15 2374.52,-132.15"/>
<polygon fill="black" stroke="black" points="2378.02,-132.15 2374.52,-122.15 2371.02,-132.15 2378.02,-132.15"/>
</g>
<!-- UserService -->
<g id="node20" class="node">
<title>UserService</title>
<ellipse fill="#fdb462" stroke="black" cx="2076" cy="-180" rx="58.44" ry="18"/>
<text text-anchor="middle" x="2076" y="-175.8" font-family="Times,serif" font-size="14.00">UserService</text>
</g>
<!-- UserService&#45;&gt;UserModule -->
<g id="edge26" class="edge">
<title>UserService&#45;&gt;UserModule</title>
<path fill="none" stroke="black" d="M2076,-198.31C2076,-218.15 2076,-247 2076,-247 2076,-247 711.21,-247 711.21,-247"/>
<polygon fill="black" stroke="black" points="711.21,-243.5 701.21,-247 711.21,-250.5 711.21,-243.5"/>
</g>
<!-- UserProfileService -->
<g id="node22" class="node">
<title>UserProfileService</title>
<ellipse fill="#fdb462" stroke="black" cx="2246" cy="-104" rx="84.5" ry="18"/>
<text text-anchor="middle" x="2246" y="-99.8" font-family="Times,serif" font-size="14.00">UserProfileService</text>
</g>
<!-- UserProfileService&#45;&gt;UserProfileModule -->
<g id="edge29" class="edge">
<title>UserProfileService&#45;&gt;UserProfileModule</title>
<path fill="none" stroke="black" d="M2310.32,-115.88C2310.32,-115.88 2310.32,-151.99 2310.32,-151.99"/>
<polygon fill="black" stroke="black" points="2306.82,-151.99 2310.32,-161.99 2313.82,-151.99 2306.82,-151.99"/>
</g>
</g>
</svg>
