<?xml version="1.0" encoding="UTF-8" standalone="no"?>
<!DOCTYPE svg PUBLIC "-//W3C//DTD SVG 1.1//EN"
 "http://www.w3.org/Graphics/SVG/1.1/DTD/svg11.dtd">
<!-- Generated by graphviz version 2.46.0 (20210119.1425)
 -->
<!-- Title: dependencies Pages: 1 -->
<svg width="856pt" height="211pt"
 viewBox="0.00 0.00 856.00 211.00" xmlns="http://www.w3.org/2000/svg" xmlns:xlink="http://www.w3.org/1999/xlink">
<g id="graph0" class="graph" transform="scale(1 1) rotate(0) translate(4 207)">
<title>dependencies</title>
<polygon fill="white" stroke="transparent" points="-4,4 -4,-207 852,-207 852,4 -4,4"/>
<text text-anchor="start" x="403.01" y="-42.4" font-family="sans-serif" font-weight="bold" font-size="14.00">Legend</text>
<polygon fill="#ffffb3" stroke="transparent" points="190,-10 190,-30 210,-30 210,-10 190,-10"/>
<text text-anchor="start" x="213.63" y="-15.4" font-family="sans-serif" font-size="14.00"> &#160;Declarations</text>
<polygon fill="#8dd3c7" stroke="transparent" points="303,-10 303,-30 323,-30 323,-10 303,-10"/>
<text text-anchor="start" x="326.73" y="-15.4" font-family="sans-serif" font-size="14.00"> &#160;Module</text>
<polygon fill="#80b1d3" stroke="transparent" points="389,-10 389,-30 409,-30 409,-10 389,-10"/>
<text text-anchor="start" x="412.78" y="-15.4" font-family="sans-serif" font-size="14.00"> &#160;Bootstrap</text>
<polygon fill="#fdb462" stroke="transparent" points="486,-10 486,-30 506,-30 506,-10 486,-10"/>
<text text-anchor="start" x="509.67" y="-15.4" font-family="sans-serif" font-size="14.00"> &#160;Providers</text>
<polygon fill="#fb8072" stroke="transparent" points="582,-10 582,-30 602,-30 602,-10 582,-10"/>
<text text-anchor="start" x="605.73" y="-15.4" font-family="sans-serif" font-size="14.00"> &#160;Exports</text>
<g id="clust1" class="cluster">
<title>cluster_AppModule</title>
<polygon fill="none" stroke="black" stroke-dasharray="1,5" points="8,-70 8,-195 840,-195 840,-70 8,-70"/>
</g>
<g id="clust3" class="cluster">
<title>cluster_AppModule_imports</title>
<polygon fill="none" stroke="black" points="16,-78 16,-130 832,-130 832,-78 16,-78"/>
</g>
<!-- AuthorizationTokenModule -->
<g id="node1" class="node">
<title>AuthorizationTokenModule</title>
<polygon fill="#8dd3c7" stroke="black" points="823.58,-122 820.58,-126 799.58,-126 796.58,-122 650.42,-122 650.42,-86 823.58,-86 823.58,-122"/>
<text text-anchor="middle" x="737" y="-99.8" font-family="Times,serif" font-size="14.00">AuthorizationTokenModule</text>
</g>
<!-- AppModule -->
<g id="node7" class="node">
<title>AppModule</title>
<polygon fill="#8dd3c7" stroke="black" points="439.66,-187 436.66,-191 415.66,-191 412.66,-187 356.34,-187 356.34,-151 439.66,-151 439.66,-187"/>
<text text-anchor="middle" x="398" y="-164.8" font-family="Times,serif" font-size="14.00">AppModule</text>
</g>
<!-- AuthorizationTokenModule&#45;&gt;AppModule -->
<g id="edge1" class="edge">
<title>AuthorizationTokenModule&#45;&gt;AppModule</title>
<path fill="none" stroke="black" d="M737,-122.28C737,-143.32 737,-175 737,-175 737,-175 449.91,-175 449.91,-175"/>
<polygon fill="black" stroke="black" points="449.91,-171.5 439.91,-175 449.91,-178.5 449.91,-171.5"/>
</g>
<!-- MomentModule -->
<g id="node2" class="node">
<title>MomentModule</title>
<polygon fill="#8dd3c7" stroke="black" points="632.49,-122 629.49,-126 608.49,-126 605.49,-122 525.51,-122 525.51,-86 632.49,-86 632.49,-122"/>
<text text-anchor="middle" x="579" y="-99.8" font-family="Times,serif" font-size="14.00">MomentModule</text>
</g>
<!-- MomentModule&#45;&gt;AppModule -->
<g id="edge2" class="edge">
<title>MomentModule&#45;&gt;AppModule</title>
<path fill="none" stroke="black" d="M579,-122.02C579,-139.37 579,-163 579,-163 579,-163 449.98,-163 449.98,-163"/>
<polygon fill="black" stroke="black" points="449.98,-159.5 439.98,-163 449.98,-166.5 449.98,-159.5"/>
</g>
<!-- PrismaModule -->
<g id="node3" class="node">
<title>PrismaModule</title>
<polygon fill="#8dd3c7" stroke="black" points="507.43,-122 504.43,-126 483.43,-126 480.43,-122 408.57,-122 408.57,-86 507.43,-86 507.43,-122"/>
<text text-anchor="middle" x="458" y="-99.8" font-family="Times,serif" font-size="14.00">PrismaModule</text>
</g>
<!-- PrismaModule&#45;&gt;AppModule -->
<g id="edge3" class="edge">
<title>PrismaModule&#45;&gt;AppModule</title>
<path fill="none" stroke="black" d="M424.31,-122.11C424.31,-122.11 424.31,-140.99 424.31,-140.99"/>
<polygon fill="black" stroke="black" points="420.81,-140.99 424.31,-150.99 427.81,-140.99 420.81,-140.99"/>
</g>
<!-- SecurityModule -->
<g id="node4" class="node">
<title>SecurityModule</title>
<polygon fill="#8dd3c7" stroke="black" points="391.2,-122 388.2,-126 367.2,-126 364.2,-122 284.8,-122 284.8,-86 391.2,-86 391.2,-122"/>
<text text-anchor="middle" x="338" y="-99.8" font-family="Times,serif" font-size="14.00">SecurityModule</text>
</g>
<!-- SecurityModule&#45;&gt;AppModule -->
<g id="edge4" class="edge">
<title>SecurityModule&#45;&gt;AppModule</title>
<path fill="none" stroke="black" d="M373.64,-122.11C373.64,-122.11 373.64,-140.99 373.64,-140.99"/>
<polygon fill="black" stroke="black" points="370.14,-140.99 373.64,-150.99 377.14,-140.99 370.14,-140.99"/>
</g>
<!-- TencentCloudModule -->
<g id="node5" class="node">
<title>TencentCloudModule</title>
<polygon fill="#8dd3c7" stroke="black" points="266.36,-122 263.36,-126 242.36,-126 239.36,-122 127.64,-122 127.64,-86 266.36,-86 266.36,-122"/>
<text text-anchor="middle" x="197" y="-99.8" font-family="Times,serif" font-size="14.00">TencentCloudModule</text>
</g>
<!-- TencentCloudModule&#45;&gt;AppModule -->
<g id="edge5" class="edge">
<title>TencentCloudModule&#45;&gt;AppModule</title>
<path fill="none" stroke="black" d="M197,-122.02C197,-139.37 197,-163 197,-163 197,-163 345.86,-163 345.86,-163"/>
<polygon fill="black" stroke="black" points="345.86,-166.5 355.86,-163 345.86,-159.5 345.86,-166.5"/>
</g>
<!-- UserModule -->
<g id="node6" class="node">
<title>UserModule</title>
<polygon fill="#8dd3c7" stroke="black" points="109.98,-122 106.98,-126 85.98,-126 82.98,-122 24.02,-122 24.02,-86 109.98,-86 109.98,-122"/>
<text text-anchor="middle" x="67" y="-99.8" font-family="Times,serif" font-size="14.00">UserModule</text>
</g>
<!-- UserModule&#45;&gt;AppModule -->
<g id="edge6" class="edge">
<title>UserModule&#45;&gt;AppModule</title>
<path fill="none" stroke="black" d="M67,-122.28C67,-143.32 67,-175 67,-175 67,-175 346.08,-175 346.08,-175"/>
<polygon fill="black" stroke="black" points="346.08,-178.5 356.08,-175 346.08,-171.5 346.08,-178.5"/>
</g>
</g>
</svg>
