<?xml version="1.0" encoding="UTF-8" standalone="no"?>
<!DOCTYPE svg PUBLIC "-//W3C//DTD SVG 1.1//EN"
 "http://www.w3.org/Graphics/SVG/1.1/DTD/svg11.dtd">
<!-- Generated by graphviz version 2.46.0 (20210119.1425)
 -->
<!-- Title: dependencies Pages: 1 -->
<svg width="513pt" height="284pt"
 viewBox="0.00 0.00 513.00 284.00" xmlns="http://www.w3.org/2000/svg" xmlns:xlink="http://www.w3.org/1999/xlink">
<g id="graph0" class="graph" transform="scale(1 1) rotate(0) translate(4 280)">
<title>dependencies</title>
<polygon fill="white" stroke="transparent" points="-4,4 -4,-280 509,-280 509,4 -4,4"/>
<text text-anchor="start" x="231.51" y="-42.4" font-family="sans-serif" font-weight="bold" font-size="14.00">Legend</text>
<polygon fill="#ffffb3" stroke="transparent" points="18.5,-10 18.5,-30 38.5,-30 38.5,-10 18.5,-10"/>
<text text-anchor="start" x="42.13" y="-15.4" font-family="sans-serif" font-size="14.00"> &#160;Declarations</text>
<polygon fill="#8dd3c7" stroke="transparent" points="131.5,-10 131.5,-30 151.5,-30 151.5,-10 131.5,-10"/>
<text text-anchor="start" x="155.23" y="-15.4" font-family="sans-serif" font-size="14.00"> &#160;Module</text>
<polygon fill="#80b1d3" stroke="transparent" points="217.5,-10 217.5,-30 237.5,-30 237.5,-10 217.5,-10"/>
<text text-anchor="start" x="241.28" y="-15.4" font-family="sans-serif" font-size="14.00"> &#160;Bootstrap</text>
<polygon fill="#fdb462" stroke="transparent" points="314.5,-10 314.5,-30 334.5,-30 334.5,-10 314.5,-10"/>
<text text-anchor="start" x="338.17" y="-15.4" font-family="sans-serif" font-size="14.00"> &#160;Providers</text>
<polygon fill="#fb8072" stroke="transparent" points="410.5,-10 410.5,-30 430.5,-30 430.5,-10 410.5,-10"/>
<text text-anchor="start" x="434.23" y="-15.4" font-family="sans-serif" font-size="14.00"> &#160;Exports</text>
<g id="clust1" class="cluster">
<title>cluster_SecurityModule</title>
<polygon fill="none" stroke="black" stroke-dasharray="1,5" points="8,-70 8,-268 497,-268 497,-70 8,-70"/>
</g>
<g id="clust6" class="cluster">
<title>cluster_SecurityModule_providers</title>
<polygon fill="none" stroke="black" points="295,-78 295,-130 489,-130 489,-78 295,-78"/>
</g>
<g id="clust4" class="cluster">
<title>cluster_SecurityModule_exports</title>
<polygon fill="none" stroke="black" points="156,-208 156,-260 304,-260 304,-208 156,-208"/>
</g>
<g id="clust3" class="cluster">
<title>cluster_SecurityModule_imports</title>
<polygon fill="none" stroke="black" points="16,-78 16,-130 287,-130 287,-78 16,-78"/>
</g>
<!-- PrismaModule -->
<g id="node1" class="node">
<title>PrismaModule</title>
<polygon fill="#8dd3c7" stroke="black" points="279.43,-122 276.43,-126 255.43,-126 252.43,-122 180.57,-122 180.57,-86 279.43,-86 279.43,-122"/>
<text text-anchor="middle" x="230" y="-99.8" font-family="Times,serif" font-size="14.00">PrismaModule</text>
</g>
<!-- SecurityModule -->
<g id="node3" class="node">
<title>SecurityModule</title>
<polygon fill="#8dd3c7" stroke="black" points="283.2,-187 280.2,-191 259.2,-191 256.2,-187 176.8,-187 176.8,-151 283.2,-151 283.2,-187"/>
<text text-anchor="middle" x="230" y="-164.8" font-family="Times,serif" font-size="14.00">SecurityModule</text>
</g>
<!-- PrismaModule&#45;&gt;SecurityModule -->
<g id="edge1" class="edge">
<title>PrismaModule&#45;&gt;SecurityModule</title>
<path fill="none" stroke="black" d="M230,-122.11C230,-122.11 230,-140.99 230,-140.99"/>
<polygon fill="black" stroke="black" points="226.5,-140.99 230,-150.99 233.5,-140.99 226.5,-140.99"/>
</g>
<!-- TencentCloudModule -->
<g id="node2" class="node">
<title>TencentCloudModule</title>
<polygon fill="#8dd3c7" stroke="black" points="162.36,-122 159.36,-126 138.36,-126 135.36,-122 23.64,-122 23.64,-86 162.36,-86 162.36,-122"/>
<text text-anchor="middle" x="93" y="-99.8" font-family="Times,serif" font-size="14.00">TencentCloudModule</text>
</g>
<!-- TencentCloudModule&#45;&gt;SecurityModule -->
<g id="edge2" class="edge">
<title>TencentCloudModule&#45;&gt;SecurityModule</title>
<path fill="none" stroke="black" d="M93,-122.11C93,-141.34 93,-169 93,-169 93,-169 166.64,-169 166.64,-169"/>
<polygon fill="black" stroke="black" points="166.64,-172.5 176.64,-169 166.64,-165.5 166.64,-172.5"/>
</g>
<!-- SecuritySmsService  -->
<g id="node4" class="node">
<title>SecuritySmsService </title>
<polygon fill="#fb8072" stroke="black" points="296.25,-252 163.75,-252 163.75,-216 296.25,-216 296.25,-252"/>
<text text-anchor="middle" x="230" y="-229.8" font-family="Times,serif" font-size="14.00">SecuritySmsService </text>
</g>
<!-- SecurityModule&#45;&gt;SecuritySmsService  -->
<g id="edge3" class="edge">
<title>SecurityModule&#45;&gt;SecuritySmsService </title>
<path fill="none" stroke="black" stroke-dasharray="5,2" d="M230,-187.11C230,-187.11 230,-205.99 230,-205.99"/>
<polygon fill="black" stroke="black" points="226.5,-205.99 230,-215.99 233.5,-205.99 226.5,-205.99"/>
</g>
<!-- SecuritySmsService -->
<g id="node5" class="node">
<title>SecuritySmsService</title>
<ellipse fill="#fdb462" stroke="black" cx="392" cy="-104" rx="88.62" ry="18"/>
<text text-anchor="middle" x="392" y="-99.8" font-family="Times,serif" font-size="14.00">SecuritySmsService</text>
</g>
<!-- SecuritySmsService&#45;&gt;SecurityModule -->
<g id="edge4" class="edge">
<title>SecuritySmsService&#45;&gt;SecurityModule</title>
<path fill="none" stroke="black" d="M392,-122.11C392,-141.34 392,-169 392,-169 392,-169 293.49,-169 293.49,-169"/>
<polygon fill="black" stroke="black" points="293.49,-165.5 283.49,-169 293.49,-172.5 293.49,-165.5"/>
</g>
</g>
</svg>
