<?xml version="1.0" encoding="UTF-8" standalone="no"?>
<!DOCTYPE svg PUBLIC "-//W3C//DTD SVG 1.1//EN"
 "http://www.w3.org/Graphics/SVG/1.1/DTD/svg11.dtd">
<!-- Generated by graphviz version 2.46.0 (20210119.1425)
 -->
<!-- Title: dependencies Pages: 1 -->
<svg width="504pt" height="284pt"
 viewBox="0.00 0.00 504.00 284.00" xmlns="http://www.w3.org/2000/svg" xmlns:xlink="http://www.w3.org/1999/xlink">
<g id="graph0" class="graph" transform="scale(1 1) rotate(0) translate(4 280)">
<title>dependencies</title>
<polygon fill="white" stroke="transparent" points="-4,4 -4,-280 500,-280 500,4 -4,4"/>
<text text-anchor="start" x="227.01" y="-42.4" font-family="sans-serif" font-weight="bold" font-size="14.00">Legend</text>
<polygon fill="#ffffb3" stroke="transparent" points="14,-10 14,-30 34,-30 34,-10 14,-10"/>
<text text-anchor="start" x="37.63" y="-15.4" font-family="sans-serif" font-size="14.00"> &#160;Declarations</text>
<polygon fill="#8dd3c7" stroke="transparent" points="127,-10 127,-30 147,-30 147,-10 127,-10"/>
<text text-anchor="start" x="150.73" y="-15.4" font-family="sans-serif" font-size="14.00"> &#160;Module</text>
<polygon fill="#80b1d3" stroke="transparent" points="213,-10 213,-30 233,-30 233,-10 213,-10"/>
<text text-anchor="start" x="236.78" y="-15.4" font-family="sans-serif" font-size="14.00"> &#160;Bootstrap</text>
<polygon fill="#fdb462" stroke="transparent" points="310,-10 310,-30 330,-30 330,-10 310,-10"/>
<text text-anchor="start" x="333.67" y="-15.4" font-family="sans-serif" font-size="14.00"> &#160;Providers</text>
<polygon fill="#fb8072" stroke="transparent" points="406,-10 406,-30 426,-30 426,-10 406,-10"/>
<text text-anchor="start" x="429.73" y="-15.4" font-family="sans-serif" font-size="14.00"> &#160;Exports</text>
<g id="clust1" class="cluster">
<title>cluster_UserProfileModule</title>
<polygon fill="none" stroke="black" stroke-dasharray="1,5" points="86,-70 86,-268 410,-268 410,-70 86,-70"/>
</g>
<g id="clust6" class="cluster">
<title>cluster_UserProfileModule_providers</title>
<polygon fill="none" stroke="black" points="216,-78 216,-130 402,-130 402,-78 216,-78"/>
</g>
<g id="clust3" class="cluster">
<title>cluster_UserProfileModule_imports</title>
<polygon fill="none" stroke="black" points="94,-78 94,-130 208,-130 208,-78 94,-78"/>
</g>
<g id="clust4" class="cluster">
<title>cluster_UserProfileModule_exports</title>
<polygon fill="none" stroke="black" points="166,-208 166,-260 308,-260 308,-208 166,-208"/>
</g>
<!-- PrismaModule -->
<g id="node1" class="node">
<title>PrismaModule</title>
<polygon fill="#8dd3c7" stroke="black" points="200.43,-122 197.43,-126 176.43,-126 173.43,-122 101.57,-122 101.57,-86 200.43,-86 200.43,-122"/>
<text text-anchor="middle" x="151" y="-99.8" font-family="Times,serif" font-size="14.00">PrismaModule</text>
</g>
<!-- UserProfileModule -->
<g id="node2" class="node">
<title>UserProfileModule</title>
<polygon fill="#8dd3c7" stroke="black" points="299.08,-187 296.08,-191 275.08,-191 272.08,-187 174.92,-187 174.92,-151 299.08,-151 299.08,-187"/>
<text text-anchor="middle" x="237" y="-164.8" font-family="Times,serif" font-size="14.00">UserProfileModule</text>
</g>
<!-- PrismaModule&#45;&gt;UserProfileModule -->
<g id="edge1" class="edge">
<title>PrismaModule&#45;&gt;UserProfileModule</title>
<path fill="none" stroke="black" d="M187.59,-122.11C187.59,-122.11 187.59,-140.99 187.59,-140.99"/>
<polygon fill="black" stroke="black" points="184.09,-140.99 187.59,-150.99 191.09,-140.99 184.09,-140.99"/>
</g>
<!-- UserProfileService  -->
<g id="node3" class="node">
<title>UserProfileService </title>
<polygon fill="#fb8072" stroke="black" points="300,-252 174,-252 174,-216 300,-216 300,-252"/>
<text text-anchor="middle" x="237" y="-229.8" font-family="Times,serif" font-size="14.00">UserProfileService </text>
</g>
<!-- UserProfileModule&#45;&gt;UserProfileService  -->
<g id="edge2" class="edge">
<title>UserProfileModule&#45;&gt;UserProfileService </title>
<path fill="none" stroke="black" stroke-dasharray="5,2" d="M237,-187.11C237,-187.11 237,-205.99 237,-205.99"/>
<polygon fill="black" stroke="black" points="233.5,-205.99 237,-215.99 240.5,-205.99 233.5,-205.99"/>
</g>
<!-- UserProfileService -->
<g id="node4" class="node">
<title>UserProfileService</title>
<ellipse fill="#fdb462" stroke="black" cx="309" cy="-104" rx="84.5" ry="18"/>
<text text-anchor="middle" x="309" y="-99.8" font-family="Times,serif" font-size="14.00">UserProfileService</text>
</g>
<!-- UserProfileService&#45;&gt;UserProfileModule -->
<g id="edge3" class="edge">
<title>UserProfileService&#45;&gt;UserProfileModule</title>
<path fill="none" stroke="black" d="M261.77,-119.08C261.77,-119.08 261.77,-140.76 261.77,-140.76"/>
<polygon fill="black" stroke="black" points="258.27,-140.76 261.77,-150.76 265.27,-140.76 258.27,-140.76"/>
</g>
</g>
</svg>
